<svg height="512pt" viewBox="0 -18 512.00113 512" width="512pt" xmlns="http://www.w3.org/2000/svg"><path d="m406.570312.730469c-1.125-1.125-2.996093-.914063-3.851562.425781-2.445312 3.839844-5.335938 7.472656-8.6875 10.824219-23.335938 23.335937-60.257812 24.777343-85.289062 4.347656-2.484376-2.027344-6.089844-1.867187-8.355469.398437l-218.042969 218.046876c-2.269531 2.265624-2.425781 5.871093-.398438 8.355468 20.429688 25.027344 18.988282 61.953125-4.347656 85.289063-3.351562 3.351562-6.988281 6.238281-10.824218 8.683593-1.34375.855469-1.550782 2.730469-.425782 3.855469l17.167969 17.167969c.625.625 1.53125.871094 2.382813.652344l11.855468-3.050782c1.835938-.476562 3.503906 1.195313 3.03125 3.03125l-3.050781 11.851563c-.222656.855469.027344 1.761719.648437 2.382813l12.820313 12.820312c.621094.625 1.527344.871094 2.382813.652344l11.851562-3.054688c1.835938-.472656 3.507812 1.199219 3.035156 3.035156l-3.054687 11.851563c-.21875.851563.027343 1.761719.652343 2.382813l13.550782 13.550781c.625.625 1.53125.871093 2.382812.652343l11.851563-3.054687c1.835937-.472656 3.507812 1.199219 3.035156 3.035156l-3.050781 11.851563c-.222656.855468.027344 1.761718.648437 2.382812l16.558594 16.558594c1.128906 1.128906 3 .917969 3.855469-.425781 2.445312-3.835938 5.332031-7.472657 8.683594-10.820313 23.527343-23.527344 60.875-24.8125 85.910156-3.859375 2.480468 2.078125 6.128906 1.941407 8.417968-.347656l217.90625-217.90625c2.289063-2.289063 2.425782-5.933594.347657-8.414063-20.957031-25.039062-19.671875-62.382812 3.855469-85.910156 3.351562-3.351562 6.984374-6.242187 10.824218-8.6875 1.34375-.855468 1.550782-2.726562.425782-3.851562l-16.558594-16.558594c-.625-.625-1.53125-.871094-2.382813-.652344l-11.851562 3.054688c-1.835938.472656-3.507813-1.199219-3.035157-3.035156l3.050782-11.851563c.222656-.855469-.027344-1.761719-.648438-2.382813l-13.550781-13.554687c-.625-.621094-1.53125-.871094-2.386719-.648437l-11.851562 3.050781c-1.835938.472656-3.503906-1.195313-3.03125-3.03125l3.050781-11.855469c.222656-.851562-.027344-1.757812-.648437-2.382812l-12.820313-12.816407c-.625-.625-1.53125-.871093-2.382813-.652343l-11.851562 3.054687c-1.835938.472656-3.507812-1.199219-3.035156-3.035156l3.054687-11.851563c.21875-.851562-.03125-1.761718-.652343-2.382812zm0 0" fill="#4694f2"/><path d="m511.273438 105.433594-16.558594-16.5625c-.625-.621094-1.53125-.871094-2.386719-.648438l-11.851563 3.050782c-1.835937.472656-3.503906-1.195313-3.03125-3.03125l3.050782-11.855469c.222656-.851563-.027344-1.757813-.648438-2.382813l-13.554687-13.550781c-.621094-.625-1.527344-.871094-2.382813-.652344l-11.851562 3.054688c-1.835938.472656-3.507813-1.199219-3.035156-3.035157l3.054687-11.851562c.21875-.851562-.027344-1.761719-.652344-2.382812l-12.816406-12.820313c-.625-.621094-1.53125-.871094-2.382813-.652344l-11.855468 3.054688c-1.835938.472656-3.503906-1.199219-3.03125-3.035157l3.050781-11.851562c.222656-.851562-.027344-1.757812-.648437-2.382812l-17.171876-17.167969c-1.125-1.128907-2.996093-.917969-3.851562.425781-2.445312 3.835938-5.335938 7.46875-8.6875 10.820312-5.738281 5.738282-12.300781 10.144532-19.300781 13.234376l88.304687 88.308593c1.125 1.125.917969 2.996094-.425781 3.851563-3.835937 2.445312-7.472656 5.335937-10.820313 8.6875-23.527343 23.527344-24.8125 60.871094-3.855468 85.910156 2.074218 2.480469 1.9375 6.125-.347656 8.414062l-198.660157 198.660157c7.351563 2.460937 14.34375 6.296875 20.570313 11.507812 2.480468 2.078125 6.128906 1.941407 8.414062-.347656l217.910156-217.90625c2.285157-2.289063 2.421876-5.933594.347657-8.417969-20.957031-25.035156-19.671875-62.382812 3.855469-85.910156 3.351562-3.347656 6.984374-6.238281 10.824218-8.683594 1.339844-.855468 1.550782-2.726562.425782-3.851562zm0 0" fill="#257edf"/><path d="m445.320312 204.976562-174.730468 174.726563c-13.277344 13.277344-34.804688 13.277344-48.082032 0l-89.597656-89.59375c-13.277344-13.28125-13.277344-34.808594 0-48.085937l174.730469-174.726563c13.277344-13.277344 34.804687-13.277344 48.082031 0l89.597656 89.59375c13.277344 13.277344 13.277344 34.804687 0 48.085937zm0 0" fill="#7bc0ff"/><path d="m307.5 67.433594-42.605469 42.605468 137.679688 137.679688 42.605469-42.605469c13.355468-13.355469 13.355468-35.007812 0-48.363281l-89.316407-89.316406c-13.355469-13.355469-35.007812-13.355469-48.363281 0zm0 0" fill="#e8e8ed"/><path d="m445.179688 156.75-89.316407-89.316406c-12.273437-12.269532-31.542969-13.257813-44.953125-2.976563 6.335938 1.296875 12.371094 4.398438 17.285156 9.3125l89.320313 89.316407c13.351563 13.355468 13.351563 35.007812 0 48.363281l-25.605469 25.601562 10.667969 10.667969 42.601563-42.601562c13.355468-13.359376 13.355468-35.011719 0-48.367188zm0 0" fill="#d2d2dd"/><path d="m323.902344 143.324219c-1.984375 0-3.964844-.753907-5.480469-2.265625-3.023437-3.027344-3.023437-7.933594 0-10.960938l33.171875-33.171875c3.027344-3.027343 7.933594-3.023437 10.960938 0 3.023437 3.027344 3.023437 7.933594 0 10.957031l-33.171876 33.175782c-1.515624 1.511718-3.496093 2.265625-5.480468 2.265625zm0 0" fill="#5c5c5c"/><path d="m341.613281 161.039062c-1.984375 0-3.964843-.757812-5.480469-2.269531-3.023437-3.027343-3.023437-7.933593 0-10.957031l33.171876-33.175781c3.027343-3.023438 7.933593-3.023438 10.960937 0 3.023437 3.027343 3.023437 7.933593 0 10.960937l-33.171875 33.171875c-1.515625 1.511719-3.496094 2.269531-5.480469 2.269531zm0 0" fill="#5c5c5c"/><path d="m359.324219 178.75c-1.980469 0-3.964844-.757812-5.476563-2.269531-3.027344-3.027344-3.027344-7.933594 0-10.957031l33.171875-33.175782c3.023438-3.023437 7.929688-3.023437 10.957031 0 3.027344 3.027344 3.027344 7.933594 0 10.960938l-33.171874 33.171875c-1.515626 1.511719-3.496094 2.269531-5.480469 2.269531zm0 0" fill="#5c5c5c"/><path d="m377.035156 196.460938c-1.980468 0-3.964844-.757813-5.476562-2.269532-3.027344-3.027344-3.027344-7.933594 0-10.957031l33.171875-33.175781c3.023437-3.023438 7.929687-3.023438 10.957031 0 3.027344 3.027344 3.027344 7.933594 0 10.960937l-33.171875 33.171875c-1.511719 1.511719-3.496094 2.269532-5.480469 2.269532zm0 0" fill="#5c5c5c"/><path d="m481.148438 262.671875c0-1.589844-1.46875-2.765625-3.027344-2.421875-4.441406.984375-9.054688 1.511719-13.792969 1.511719-33 0-60.128906-25.089844-63.382813-57.234375-.324218-3.191406-2.984374-5.628906-6.1875-5.628906h-308.363281c-3.207031 0-5.867187 2.4375-6.191406 5.628906-3.253906 32.144531-30.382813 57.234375-63.382813 57.234375-4.738281 0-9.351562-.527344-13.792968-1.511719-1.554688-.34375-3.027344.832031-3.027344 2.421875v24.285156c0 .878907.464844 1.695313 1.226562 2.144531l10.539063 6.222657c1.632813.960937 1.632813 3.324219 0 4.289062l-10.539063 6.222657c-.761718.445312-1.226562 1.261718-1.226562 2.144531v18.128906c0 .882813.464844 1.699219 1.226562 2.144531l10.539063 6.222656c1.632813.964844 1.632813 3.324219 0 4.289063l-10.539063 6.222656c-.761718.449219-1.226562 1.265625-1.226562 2.144531v19.164063c0 .882813.464844 1.699219 1.226562 2.148437l10.539063 6.21875c1.632813.964844 1.632813 3.328126 0 4.292969l-10.539063 6.21875c-.761718.449219-1.226562 1.265625-1.226562 2.148438v23.417969c0 1.59375 1.472656 2.769531 3.027344 2.425781 4.441406-.984375 9.054687-1.511719 13.792968-1.511719 33.273438 0 60.589844 25.496094 63.472657 58.019531.285156 3.222657 2.960937 5.703125 6.199219 5.703125h308.167968c3.234375 0 5.910156-2.480468 6.195313-5.703125 2.886719-32.523437 30.203125-58.019531 63.472656-58.019531 4.738281 0 9.355469.527344 13.796875 1.511719 1.554688.34375 3.023438-.832031 3.023438-2.425781v-23.417969c0-.882813-.464844-1.699219-1.222657-2.144531l-10.539062-6.222657c-1.632813-.964843-1.632813-3.328125 0-4.289062l10.539062-6.222657c.757813-.449218 1.222657-1.265624 1.222657-2.144531v-19.167969c0-.878906-.464844-1.695312-1.222657-2.144531l-10.539062-6.21875c-1.632813-.964843-1.632813-3.328125 0-4.292969l10.539062-6.222656c.757813-.445312 1.222657-1.261718 1.222657-2.144531v-18.128906c0-.878907-.464844-1.695313-1.222657-2.144531l-10.539062-6.222657c-1.632813-.960937-1.632813-3.324219 0-4.289062l10.539062-6.222657c.757813-.445312 1.222657-1.261718 1.222657-2.144531zm0 0" fill="#4694f2"/><path d="m469.386719 295.324219 10.539062-6.222657c.757813-.449218 1.222657-1.265624 1.222657-2.144531v-24.285156c0-1.589844-1.46875-2.765625-3.023438-2.421875-4.441406.984375-9.054688 1.511719-13.796875 1.511719-9.816406 0-19.105469-2.234375-27.414063-6.203125v128.609375c0 1.59375-1.46875 2.769531-3.023437 2.425781-4.441406-.984375-9.054687-1.511719-13.792969-1.511719-33.273437 0-60.589844 25.5-63.476562 58.019531-.285156 3.222657-2.960938 5.707032-6.195313 5.707032h-275.683593c2.964843 6.449218 4.894531 13.472656 5.550781 20.867187.285156 3.222657 2.960937 5.703125 6.199219 5.703125h308.167968c3.234375 0 5.910156-2.480468 6.195313-5.703125 2.886719-32.523437 30.203125-58.023437 63.472656-58.023437 4.738281 0 9.355469.527344 13.796875 1.511718 1.554688.347657 3.023438-.828124 3.023438-2.421874v-23.417969c0-.882813-.464844-1.699219-1.222657-2.148438l-10.539062-6.21875c-1.632813-.964843-1.632813-3.328125 0-4.292969l10.539062-6.21875c.757813-.449218 1.222657-1.265624 1.222657-2.148437v-19.164063c0-.878906-.464844-1.695312-1.222657-2.144531l-10.539062-6.222656c-1.632813-.964844-1.632813-3.324219 0-4.289063l10.539062-6.222656c.757813-.445312 1.222657-1.261718 1.222657-2.144531v-18.128906c0-.882813-.464844-1.699219-1.222657-2.144531l-10.539062-6.222657c-1.632813-.964843-1.632813-3.328125 0-4.289062zm0 0" fill="#257edf"/><path d="m366.125 434.492188h-251.101562c-17.671876 0-32-14.324219-32-32v-130.707032c0-17.671875 14.328124-32 32-32h251.105468c17.671875 0 32 14.328125 32 32v130.707032c-.003906 17.675781-14.328125 32-32.003906 32zm0 0" fill="#7bc0ff"/><path d="m366.101562 239.785156h-62.421874v194.707032h62.421874c17.6875 0 32.027344-14.335938 32.027344-32.027344v-130.652344c-.003906-17.6875-14.339844-32.027344-32.027344-32.027344zm0 0" fill="#e8e8ed"/><path d="m366.101562 239.785156h-22.007812c16.917969.863282 30.367188 14.855469 30.367188 31.984375v130.65625c0 17.6875-14.339844 32.027344-32.027344 32.027344h-38.753906v.039063h62.421874c17.6875 0 32.027344-14.335938 32.027344-32.027344v-130.652344c-.003906-17.6875-14.339844-32.027344-32.027344-32.027344zm0 0" fill="#d2d2dd"/><g fill="#257edf"><path d="m125.5625 317.816406c1.820312 0 2.320312 1.65625 2.320312 3.3125 0 1.652344-.445312 3.3125-2.320312 3.3125h-7.011719v29.921875c0 2.046875-1.824219 2.601563-3.644531 2.601563-1.601562 0-3.644531-.554688-3.644531-2.601563v-29.921875h-7.011719c-1.878906 0-2.320312-1.660156-2.320312-3.3125 0-1.65625.5-3.3125 2.320312-3.3125zm0 0"/><path d="m145.179688 354.367188c0 2.042968-1.875 2.597656-3.695313 2.597656-1.824219 0-3.644531-.554688-3.644531-2.597656v-34.234376c0-1.984374 1.820312-2.539062 3.644531-2.539062 1.820313 0 3.695313.554688 3.695313 2.539062zm0 0"/><path d="m171.96875 317.207031c8.890625 0 12.921875 5.355469 13.636719 12.316407.167969 1.707031-1.597657 2.644531-3.53125 2.644531-2.097657.058593-3.480469-.386719-3.921875-2.371094-.828125-3.976563-2.261719-6.128906-6.511719-6.128906-6.957031 0-7.84375 7.453125-7.84375 13.472656 0 5.960937.996094 13.46875 7.84375 13.417969 4.359375 0 5.683594-2.875 6.625-6.1875.496094-1.652344 1.710937-2.3125 3.917969-2.375 2.59375 0 3.976562.941406 3.535156 3.261718-1.105469 5.960938-5.132812 11.8125-14.078125 11.8125-11.488281 0-15.40625-8.226562-15.40625-19.929687 0-11.761719 4.03125-19.933594 15.734375-19.933594zm0 0"/><path d="m224.222656 353.652344c1.269532 2.09375-.332031 3.085937-2.429687 3.144531-2.757813.109375-4.527344-.550781-5.742188-2.652344l-8.996093-15.679687-3.371094 3.753906v12.203125c0 2.042969-1.820313 2.542969-3.644532 2.542969-1.878906 0-3.699218-.5-3.699218-2.542969v-34.289063c0-1.984374 1.820312-2.539062 3.699218-2.539062 1.824219 0 3.644532.554688 3.644532 2.539062v11.980469l10.214844-11.59375c1.824218-2.101562 3.09375-3.367187 6.183593-2.871093 2.320313.441406 3.480469 2.152343 1.988281 3.863281l-9.882812 11.207031zm0 0"/><path d="m241.191406 325.378906v7.785156h11.210938c1.820312 0 2.316406 1.65625 2.316406 3.3125s-.496094 3.3125-2.316406 3.3125h-11.210938v9.109376c0 .71875.277344.9375.941406.9375h12.308594c1.878906 0 2.320313 1.660156 2.320313 3.316406s-.496094 3.3125-2.320313 3.3125h-15.179687c-2.761719 0-5.414063-.71875-5.414063-4.859375v-28.933594c0-4.140625 2.652344-4.859375 5.414063-4.859375h15.179687c1.824219 0 2.320313 1.660156 2.320313 3.3125 0 1.65625-.441407 3.3125-2.320313 3.3125h-12.3125c-.660156.003906-.9375.222656-.9375.941406zm0 0"/><path d="m288.695312 317.816406c1.824219 0 2.320313 1.65625 2.320313 3.3125 0 1.652344-.441406 3.3125-2.320313 3.3125h-7.011718v29.921875c0 2.046875-1.820313 2.601563-3.644532 2.601563-1.601562 0-3.640624-.554688-3.640624-2.601563v-29.921875h-7.015626c-1.875 0-2.320312-1.660156-2.320312-3.3125 0-1.65625.5-3.3125 2.320312-3.3125zm0 0"/></g><path d="m374.253906 307.316406h-46.910156c-4.28125 0-7.75-3.46875-7.75-7.746094 0-4.28125 3.46875-7.75 7.75-7.75h46.910156c4.28125 0 7.75 3.46875 7.75 7.75 0 4.277344-3.46875 7.746094-7.75 7.746094zm0 0" fill="#5c5c5c"/><path d="m374.253906 332.363281h-46.910156c-4.28125 0-7.75-3.46875-7.75-7.746093 0-4.28125 3.46875-7.75 7.75-7.75h46.910156c4.28125 0 7.75 3.46875 7.75 7.75 0 4.277343-3.46875 7.746093-7.75 7.746093zm0 0" fill="#5c5c5c"/><path d="m374.253906 357.410156h-46.910156c-4.28125 0-7.75-3.46875-7.75-7.746094 0-4.28125 3.46875-7.75 7.75-7.75h46.910156c4.28125 0 7.75 3.46875 7.75 7.75 0 4.277344-3.46875 7.746094-7.75 7.746094zm0 0" fill="#5c5c5c"/><path d="m374.253906 382.460938h-46.910156c-4.28125 0-7.75-3.46875-7.75-7.75 0-4.277344 3.46875-7.746094 7.75-7.746094h46.910156c4.28125 0 7.75 3.46875 7.75 7.746094 0 4.28125-3.46875 7.75-7.75 7.75zm0 0" fill="#5c5c5c"/></svg>