<svg id="Capa_1" enable-background="new 0 0 512 512" height="512" viewBox="0 0 512 512" width="512" xmlns="http://www.w3.org/2000/svg"><path d="m331.02 241h-150.13c-10.006 73.666-7.389 54.402-12.23 90h174.63c-1.206-8.847-11.046-81.022-12.27-90z" fill="#fcd729"/><path d="m343.29 331h-87.29v-90h75.02c1.22 8.98 11.06 81.15 12.27 90z" fill="#fea922"/><path d="m104.51 176-38.79 285.25c-3.647 26.83 17.246 50.75 44.32 50.75 22.27 0 41.32-16.64 44.32-38.7l40.42-297.3z" fill="#fef241"/><path d="m446.26 461.24-38.86-285.24h-90.28l40.51 297.31c3.01 22.06 22.06 38.69 44.32 38.69 27.092 0 47.978-23.931 44.31-50.76z" fill="#fcd729"/><path d="m426 181h-340c-30.327 0-55-24.673-55-55v-71c0-30.327 24.673-55 55-55h340c30.327 0 55 24.673 55 55v71c0 30.327-24.673 55-55 55z" fill="#fcd729"/><path d="m426 0h-170v181h170c30.33 0 55-24.67 55-55v-71c0-30.33-24.67-55-55-55z" fill="#fea922"/></svg>